<svg xmlns="http://www.w3.org/2000/svg" viewBox="0 0 1100 733" role="img" aria-labelledby="title desc">
  <title id="title">Office support specialist answering a call</title>
  <desc id="desc">A realistic office scene with a woman wearing glasses taking notes while holding a desk phone handset, beside a calendar monitor, office phones, paperwork, and a whiteboard.</desc>
  <defs>
    <linearGradient id="wall" x1="0" x2="1" y1="0" y2="1"><stop stop-color="#d9d1c4"/><stop offset="1" stop-color="#aaa297"/></linearGradient>
    <linearGradient id="desk" x1="0" x2="1"><stop stop-color="#2b201a"/><stop offset=".48" stop-color="#5a3828"/><stop offset="1" stop-color="#1e1714"/></linearGradient>
    <linearGradient id="skin" x1="0" x2="1"><stop stop-color="#c97947"/><stop offset="1" stop-color="#f0ad76"/></linearGradient>
    <radialGradient id="light" cx="78%" cy="4%" r="72%"><stop stop-color="#fff8ee" stop-opacity=".85"/><stop offset="1" stop-color="#fff8ee" stop-opacity="0"/></radialGradient>
    <filter id="shadow" x="-20%" y="-20%" width="140%" height="140%"><feDropShadow dx="0" dy="10" stdDeviation="10" flood-color="#111" flood-opacity=".25"/></filter>
    <filter id="soft" x="-10%" y="-10%" width="120%" height="120%"><feGaussianBlur stdDeviation="1.2"/></filter>
  </defs>
  <rect width="1100" height="733" fill="url(#wall)"/>
  <rect width="1100" height="733" fill="url(#light)"/>
  <g opacity=".92">
    <rect x="0" y="0" width="206" height="126" fill="#d9edff"/><g stroke="#f7fbff" stroke-width="8" opacity=".8"><path d="M0 15h206M0 40h206M0 65h206M0 90h206M0 115h206"/></g><rect x="0" y="116" width="205" height="18" fill="#1d2937"/>
    <rect x="262" y="66" width="174" height="210" fill="#dfd8cc" filter="url(#shadow)"/><rect x="272" y="93" width="151" height="172" fill="#eee8dc"/><text x="333" y="88" font-family="Arial" font-size="28" font-weight="700" fill="#fff">MAY</text><g stroke="#d1c9bd" stroke-width="1"><path d="M292 116h111M292 145h111M292 174h111M292 203h111M292 232h111M314 116v145M337 116v145M360 116v145M383 116v145"/></g>
    <rect x="574" y="0" width="477" height="174" rx="7" fill="#e9e5dc" filter="url(#shadow)"/><rect x="586" y="0" width="453" height="156" fill="#f5f2ec"/><text x="637" y="28" font-family="Comic Sans MS, Arial" font-size="18" fill="#7b685a">Customer Follow Ups</text><text x="637" y="56" font-family="Comic Sans MS, Arial" font-size="15" fill="#695a50">- John D.</text><text x="637" y="80" font-family="Comic Sans MS, Arial" font-size="15" fill="#695a50">- Amber P.</text><text x="637" y="104" font-family="Comic Sans MS, Arial" font-size="15" fill="#695a50">- Mike S.</text><text x="637" y="128" font-family="Comic Sans MS, Arial" font-size="15" fill="#695a50">- Casey K.</text><text x="635" y="150" font-family="Comic Sans MS, Arial" font-size="14" fill="#d76c62">Reminders</text><path d="M924 72c21-31 60-17 60 4 37-5 62 26 36 52 13 31-47 43-61 19-22 19-63 2-50-27-20-8-12-35 15-48z" fill="none" stroke="#c5b5a5" stroke-width="3"/><text x="948" y="109" font-family="Comic Sans MS, Arial" font-size="24" fill="#b6927d">You got</text><text x="960" y="138" font-family="Comic Sans MS, Arial" font-size="24" fill="#b6927d">this!♡</text>
  </g>
  <path d="M0 566 C230 500 442 506 612 560 C777 611 916 601 1100 555 L1100 733 L0 733z" fill="url(#desk)"/>
  <g filter="url(#shadow)">
    <rect x="-38" y="143" width="274" height="298" rx="3" fill="#1c2634"/><rect x="0" y="165" width="224" height="235" fill="#d9f0ff" opacity=".85"/><g opacity=".6"><rect x="45" y="211" width="58" height="43" fill="#9dd2e8"/><rect x="110" y="211" width="58" height="43" fill="#eadf85"/><rect x="174" y="211" width="58" height="43" fill="#8ad9ee"/><rect x="46" y="263" width="61" height="42" fill="#a790db"/><rect x="112" y="268" width="70" height="59" fill="#7ddce6"/><rect x="180" y="267" width="48" height="42" fill="#d4a1dd"/><rect x="34" y="335" width="66" height="62" fill="#6ec4f0"/><rect x="110" y="338" width="53" height="54" fill="#e2d97d"/></g><rect x="29" y="439" width="168" height="52" rx="2" fill="#1b2634"/><g fill="#2e3948"><rect x="19" y="507" width="283" height="72" rx="5"/><g fill="#020817" opacity=".92"><rect x="38" y="519" width="25" height="12" rx="2"/><rect x="70" y="519" width="25" height="12" rx="2"/><rect x="102" y="519" width="25" height="12" rx="2"/><rect x="134" y="519" width="25" height="12" rx="2"/><rect x="166" y="519" width="25" height="12" rx="2"/><rect x="198" y="519" width="25" height="12" rx="2"/><rect x="230" y="519" width="25" height="12" rx="2"/><rect x="47" y="539" width="25" height="12" rx="2"/><rect x="79" y="539" width="25" height="12" rx="2"/><rect x="111" y="539" width="25" height="12" rx="2"/><rect x="143" y="539" width="25" height="12" rx="2"/><rect x="175" y="539" width="25" height="12" rx="2"/><rect x="207" y="539" width="25" height="12" rx="2"/><rect x="77" y="560" width="145" height="11" rx="2"/></g></g>
    <rect x="505" y="301" width="220" height="152" rx="8" fill="#1f1e1c"/><rect x="525" y="272" width="169" height="54" fill="#efe6cd"/><rect x="545" y="258" width="159" height="57" fill="#fff7df"/><rect x="565" y="241" width="152" height="62" fill="#eee"/><rect x="338" y="401" width="174" height="62" rx="28" fill="#181818"/><circle cx="388" cy="432" r="35" fill="#222"/><circle cx="444" cy="432" r="35" fill="#222"/><rect x="371" y="366" width="127" height="75" fill="#242424"/><rect x="386" y="380" width="84" height="40" fill="#9dd3ff" opacity=".75"/>
  </g>
  <g>
    <ellipse cx="800" cy="340" rx="104" ry="67" fill="#221713"/><path d="M733 288 C692 282 679 232 715 207 C721 153 804 135 835 178 C889 151 940 197 911 251 C950 282 931 350 861 349 C824 385 758 363 733 288z" fill="#21140f"/><g opacity=".35" stroke="#3b251d" stroke-width="7" fill="none"><path d="M741 207c60-55 114-25 106 44M786 151c52 9 84 42 74 92M713 252c54-63 124-36 133 31"/></g>
    <path d="M694 258c-11 58 19 104 72 112 45 7 83-28 91-82 8-56-21-105-74-112-47-7-80 25-89 82z" fill="url(#skin)"/><path d="M688 277c40-3 76-28 98-67 22 44 55 61 86 62-6-54-38-97-91-103-57-7-94 32-93 108z" fill="#21140f"/><path d="M670 314c-33-2-32 39-2 48" fill="#c77747"/><path d="M746 292l-37-7m48 5l51 6" stroke="#111827" stroke-width="6" stroke-linecap="round"/><rect x="707" y="282" width="45" height="30" rx="6" fill="none" stroke="#111827" stroke-width="5"/><rect x="766" y="288" width="51" height="31" rx="6" fill="none" stroke="#111827" stroke-width="5"/><path d="M754 298h12" stroke="#111827" stroke-width="5"/><path d="M726 340c20 18 49 20 72 2" stroke="#7d3d2c" stroke-width="3" fill="none" opacity=".55"/>
    <path d="M867 264c14-34 58-31 69-6 8 18 0 41-20 51l-40 21c-9 5-20 2-25-7l-4-8c-5-9-2-20 7-25z" fill="#1f2937"/><path d="M652 320c-35 18-67 28-94 36" stroke="#111827" stroke-width="15" stroke-linecap="round"/><path d="M598 357c28 24 61 52 92 81" stroke="#111827" stroke-width="8" fill="none"/><path d="M677 505c-31 8-115 7-173-3l-24 70c95 50 241 57 337 28l-2-74c-34-26-85-35-138-21z" fill="#111111"/><path d="M640 366c-45 50-54 117-28 188 64 22 146 18 220-1 1-74-7-151-73-188-37 21-79 18-119 1z" fill="#171717"/>
    <path d="M858 440c-58 63-132 94-223 111" stroke="url(#skin)" stroke-width="42" stroke-linecap="round"/><path d="M585 443c-43 24-63 61-48 97 13 32 59 20 91-4" stroke="url(#skin)" stroke-width="39" stroke-linecap="round"/><path d="M612 522c-18 9-35 8-52 1" stroke="#a75d39" stroke-width="3" opacity=".35"/>
    <path d="M553 487l-26 90" stroke="#2b2522" stroke-width="5"/><ellipse cx="544" cy="479" rx="9" ry="12" fill="#c97947" transform="rotate(-18 544 479)"/>
  </g>
  <g filter="url(#shadow)">
    <path d="M375 588c111-10 236 3 336 42l-42 64c-101-35-226-51-337-31z" fill="#f7f3f0"/><g stroke="#d4ccd1" stroke-width="2"><path d="M397 612c77-5 168 4 254 29M389 631c76-4 157 4 240 25M379 650c72-3 154 4 223 25"/></g><path d="M412 607c25 1 70 7 108 15" stroke="#ef75a5" stroke-width="3" opacity=".7"/>
    <path d="M437 508c103-11 189 0 277 24l-30 68c-88-26-179-37-277-22z" fill="#f1eee9"/><path d="M420 498c99 3 188 16 281 42" fill="none" stroke="#b9b4b2" stroke-width="5"/><g stroke="#c8c0bd" stroke-width="2"><path d="M455 531c68-2 143 8 213 25M450 548c65 0 134 8 203 24M443 565c60 1 127 7 192 21"/></g><rect x="342" y="546" width="71" height="26" rx="3" fill="#ff4f91"/><path d="M351 559h49" stroke="#c51f64" stroke-width="2" opacity=".45"/>
  </g>
  <g opacity=".85" filter="url(#soft)"><path d="M198 454l61-11 4 48-62 5z" fill="#ff5796"/><path d="M83 445l55-6 5 51-60 4z" fill="#f7e9b7"/><path d="M0 671c67-10 120-5 169 15v47H0z" fill="#f4f7fb" opacity=".8"/></g>
</svg>
